<svg width="810" height="205" viewBox="0 0 810 205" fill="none" xmlns="http://www.w3.org/2000/svg">
<path fill-rule="evenodd" clip-rule="evenodd" d="M211 -171.676L212.92 -188.557C214.88 -205.032 221.08 -225.201 229.48 -238.795C230.16 -239.891 230.64 -240.378 231.36 -241.433L237.64 -249.346C242.4 -254.378 247.84 -258.517 254.08 -261.682C256.44 -262.9 257.76 -263.508 260.64 -264.442C262.76 -265.172 265.92 -266.389 268.2 -266.592C266.88 -263.833 263.04 -234.818 262.64 -231.531C261.28 -219.357 260.4 -206.209 260.4 -192.777C259.04 -192.087 255.32 -191.438 253.68 -190.951C245.16 -188.395 242.32 -187.989 233.64 -184.499C231.52 -183.606 229.68 -182.835 227.72 -181.861L216.44 -175.206C214.56 -173.948 212.88 -172.69 211 -171.676ZM1.99997 -448.959L1.99997 -465.637C2.35997 -468.965 3.43997 -471.968 6.15997 -474.727C9.83997 -478.42 14.44 -479.353 19.56 -481.098C24.6 -482.762 29.52 -483.777 34.88 -485.156C47.8 -488.443 62.72 -490.513 77.64 -491L91.64 -491C100.92 -490.675 109.92 -489.701 118.16 -487.956C128.2 -485.887 143.96 -481.301 153.08 -475.945C154.72 -474.971 156.44 -474.2 158.16 -473.145C165.32 -468.722 172.4 -463.892 178.44 -457.968C179.16 -457.278 179.6 -456.791 180.28 -456.101C183.68 -452.652 186.96 -449.284 189.84 -445.469L193.28 -441.005C194.84 -438.611 196.52 -436.623 197.88 -434.026C198.88 -432.159 199.76 -430.941 200.84 -429.115C204.84 -422.217 207.68 -414.507 210.12 -406.878C212.8 -398.559 214.48 -389.672 215.48 -380.663C217.16 -365.405 217.04 -347.752 214.84 -332.738C214.44 -330.141 213.96 -329.938 215.24 -328.112L219.64 -321.254C224.8 -312.854 229.32 -304.129 233.08 -294.998C234.12 -292.401 235.64 -289.642 236.24 -286.923C238.32 -287.41 239.28 -288.587 241.24 -289.398L257.36 -295.242C265 -297.514 273.44 -298.569 283.4 -298.569C289.72 -298.569 294.32 -297.352 297.8 -293.213C298.92 -291.833 300.12 -289.479 300.64 -287.45C301.28 -284.853 301.08 -282.865 300.84 -279.781L295.44 -250.239C294.4 -244.395 291.88 -224.917 291.6 -219.114L290.08 -180.319C290.12 -178.209 290.48 -177.722 290.48 -175.45C290.48 -168.389 290.84 -157.675 291.68 -151.061C292.92 -141.322 293.32 -128.296 294.72 -118.353C294.92 -116.852 295.08 -114.823 295.2 -113.606C295.44 -111.779 296.04 -111.09 296.04 -109.548C296.04 -106.95 295.32 -104.272 294.44 -102.121C289.96 -91.0836 272.88 -90.6372 267.44 -102.771C266.08 -105.814 261.12 -155.281 261.12 -161.896C256.6 -161.49 243.16 -156.133 239.16 -153.699L233.08 -150.046C231.84 -149.316 231.2 -148.667 230.04 -147.896C228.92 -147.125 228.28 -146.678 227.2 -145.867C226.12 -145.055 225.44 -144.528 224.44 -143.757C220.76 -140.956 216.96 -137.994 213.72 -134.667C212.56 -133.53 212.28 -133.368 211 -132.516L211.6 -125.942C211.88 -123.994 212.04 -121.194 212.12 -119.327C212.48 -110.927 215.76 -101.675 208.72 -94.9387C202.4 -88.9329 191.52 -89.9879 186.48 -97.0895C183.8 -100.904 183.64 -104.759 183.16 -110.684C182.64 -116.852 181.48 -123.994 181.28 -130.243C180.84 -145.988 180.88 -162.87 182.08 -178.412C183.88 -202.151 190.32 -228.122 201.48 -249.143C212.84 -270.569 214.92 -261.56 210.24 -273.288C209.68 -274.627 209 -276.25 208.28 -277.752C207.52 -279.416 207.12 -280.471 206.4 -282.256C203.88 -288.384 196.84 -301.694 193.2 -307.253C191.24 -306.198 188.64 -305.265 186.4 -304.332C179.48 -301.491 172.36 -299.3 165.04 -297.393C150.88 -293.7 140.04 -292.564 124.52 -292.564C114.12 -292.564 102 -294.836 94.12 -297.514C84.6 -300.72 75.36 -304.616 67.04 -310.338C66.08 -310.987 65.2 -311.433 64.32 -312.083C62.52 -313.341 60.88 -314.599 59.16 -315.897C55.84 -318.413 52.76 -321.091 49.8 -324.094C46.92 -327.016 43.64 -329.857 41.2 -333.062C40.4 -334.077 39.84 -334.523 39.12 -335.497C35.96 -339.596 32.48 -343.857 29.84 -348.321L26.48 -353.921C25.44 -355.99 24.52 -357.695 23.32 -359.764C22.24 -361.55 21.48 -363.741 20.56 -365.608C17.56 -371.695 15.16 -378.066 13 -384.68C7.47997 -401.48 4.15997 -418.727 2.75997 -436.42L1.99997 -448.959ZM175.36 -332.089C173.92 -331.967 171.52 -330.749 170.12 -330.262C168.28 -329.613 166.64 -329.207 164.68 -328.639C161 -327.584 157.76 -326.529 153.48 -325.677C136.36 -322.187 119.24 -321.01 102.28 -326.488C95.72 -328.599 89.08 -331.683 83.36 -335.578L75.32 -341.341C74.4 -342.071 74.36 -342.112 73.56 -342.923C71.72 -344.749 69.08 -346.86 66.32 -349.903C65.52 -350.755 65.44 -351.121 64.64 -351.973C60.44 -356.558 57.44 -360.819 54.16 -366.216L43.72 -387.237C43.04 -389.103 42.48 -390.645 41.84 -392.472C37.8 -404.483 35.72 -413.614 33.72 -426.762C33.04 -431.063 32.56 -435.284 32.12 -439.463L31.68 -449.608C31.6 -451.029 31.32 -451.434 31.32 -452.976C35.2 -453.91 38.92 -455.127 42.84 -455.979C62.64 -460.078 69.68 -460.89 90.72 -460.89C98.52 -460.89 105.56 -459.956 112.16 -458.536C115.36 -457.846 118.4 -456.953 121.68 -456.142C125.16 -455.29 127.68 -454.072 130.76 -452.936C135.4 -451.232 135.72 -450.623 139.04 -449.284C145.64 -446.565 151.64 -441.452 157.16 -437.15C161.32 -433.944 168.16 -425.341 171.12 -420.837C172.08 -419.417 172.44 -418.443 173.36 -417.063C174.32 -415.562 174.68 -414.831 175.48 -413.208C179.4 -405.254 179.6 -403.672 182.28 -395.596C183.88 -390.727 185.92 -380.703 186.44 -375.347L187.24 -363.741C186.24 -363.984 177.32 -372.466 176 -373.805L170.4 -378.634C160.8 -386.263 145.88 -396.935 135.64 -402.535C134.48 -403.185 133.52 -403.753 132.32 -404.402L86.36 -427.492C76.36 -431.834 65.84 -422.663 65.84 -415.318C65.84 -410.53 66.12 -408.541 69.04 -404.24C70.52 -402.049 73.2 -400.141 75.76 -399.005C77.28 -398.356 78.56 -397.869 79.96 -397.26L97.88 -388.698C102.6 -386.385 122.52 -375.55 126.44 -372.831C132.8 -368.489 137.36 -366.095 144.28 -360.819L157.56 -350.187C160.52 -347.834 173.4 -335.051 175.36 -332.089Z" stroke="white" stroke-opacity="0.15" stroke-width="3"/>
<path fill-rule="evenodd" clip-rule="evenodd" d="M620.16 -91.0836C626.92 -91.0836 634.12 -91.9764 639.12 -93.6808C641.72 -94.5329 644.44 -95.6692 646.6 -97.0489C648.52 -98.2663 651.08 -100.214 652.56 -101.919L656.92 -108.411C657.96 -110.562 659.28 -113.606 659.96 -116.243C662.2 -125.211 662.92 -141.484 661.64 -151.629C660.52 -160.191 660 -169.525 659.08 -178.006C655.68 -209.456 654.28 -236.198 664.28 -266.633C670.12 -284.366 680.84 -299.706 693.76 -312.813C699.08 -318.21 701.08 -319.712 701.08 -327.949C701.08 -331.48 698.84 -335.376 696.56 -337.689C695.52 -338.703 693.88 -340.002 692.4 -340.61C688.04 -342.396 682 -342.031 678.4 -339.312C672.4 -334.807 664.76 -325.636 659.6 -319.549C657.04 -316.506 654.88 -313.057 652.52 -309.81C646.08 -301.045 641.28 -290.656 637.28 -280.471C632.92 -269.433 629.96 -256.975 628.32 -245.085C628.12 -243.462 628 -241.839 627.72 -240.053C627.48 -238.267 627.64 -236.563 627.36 -234.778C625.44 -221.792 627.92 -189.003 629.12 -177.763C629.72 -172.325 630.4 -166.603 630.96 -160.8C631.64 -153.577 634.68 -131.298 629.96 -124.806C624.52 -117.298 610.68 -123.385 605.88 -127.078C603.88 -128.62 601.72 -130.284 600 -132.029C595.96 -136.209 590.76 -141.89 587.76 -146.759C586.92 -148.139 586.52 -148.87 585.56 -150.168C580.84 -156.539 577.88 -164.128 574.36 -171.189C571.48 -176.91 569 -184.661 567.12 -190.951C566.64 -192.453 566.2 -193.548 565.72 -195.171C561.16 -211.444 559.6 -224.389 558.16 -241.757C557.64 -248.088 559.44 -265.416 560.72 -271.868C562.92 -283.108 565.56 -295.648 570.16 -305.996L573.36 -313.665C576.92 -320.807 580.08 -328.233 585.16 -334.442C590.32 -340.773 592 -343.167 598.12 -348.402C606.96 -355.909 605.48 -369.869 594.96 -374.698C589.32 -377.335 584.44 -375.915 579.72 -372.344L570.72 -364.187C565.04 -357.248 559.4 -350.35 554.84 -342.639C553.08 -339.718 551.52 -336.715 550 -333.59C540.32 -313.99 533.68 -292.726 530.56 -270.813C529.44 -262.94 528.72 -253.728 528.44 -245.491L528.96 -232.465C529.6 -228.163 529.8 -224.227 530.4 -220.006C530.96 -216.232 531.56 -212.134 532.2 -208.238C535.08 -191.276 540.24 -176.626 546.36 -160.881C551.44 -147.815 560.28 -132.516 569 -121.681C573.64 -115.919 578.56 -110.887 584.2 -106.22L589.92 -101.837C595.44 -97.7794 601.56 -95.0199 608.24 -92.9097C610.76 -92.1387 616.84 -91.0836 620.16 -91.0836Z" stroke="white" stroke-opacity="0.15" stroke-width="3"/>
<path fill-rule="evenodd" clip-rule="evenodd" d="M302.36 160.472C305.4 160.472 309 159.052 310.88 157.834L316.72 152.478C324.16 144.808 331.16 136.773 337.04 127.846L352.4 97.8976C362.76 68.68 363.72 42.7899 361.4 11.7056L357.68 -23.6802C356.84 -31.1469 352.4 -54.9268 362.64 -58.9442C363.84 -59.4312 366.72 -59.9588 368.32 -59.7559C370.04 -59.5124 372.16 -59.2283 373.72 -58.7819C375.52 -58.295 376.6 -57.6863 378.24 -56.9964C390.52 -51.8022 402.88 -33.6223 408.64 -22.6657L412.84 -14.1439C415.72 -8.34093 418.12 -1.84812 420.36 4.23889C427.44 23.555 430.8 44.6972 430.8 65.5553C430.8 84.5468 424.8 113.399 416.32 131.092C415.8 132.147 415.32 133.405 414.84 134.501C411.04 143.428 404.24 154.547 397.28 161.487C396.4 162.379 395.8 163.11 394.84 163.921C389.84 167.979 385.12 171.875 385.12 180.032C385.12 181.736 385.8 184.333 386.36 185.591C388.24 189.771 392.64 194.356 397.76 194.356C404.4 194.356 405.8 193.788 410.72 189.771L415.48 185.591C416.56 184.658 416.96 183.684 418.08 182.588L430.64 166.681C432.36 164.327 433.56 162.095 435.08 159.539C441 149.597 445.52 138.883 449.12 127.846C450.12 124.843 451.12 122.449 452 119.446C456.56 104.472 460.12 85.6019 460.12 69.6945C460.12 56.5466 460.24 49.0393 458.4 36.0942C457.92 32.8478 457.52 30.4942 456.96 27.3695C452.76 4.84759 444.8 -20.2309 433.2 -40.034L429.48 -46.4456C426.4 -51.6804 422.44 -56.0631 418.76 -60.8109L416.4 -63.6921C414.88 -65.4371 413.08 -67.1009 411.4 -68.7646L406.2 -73.6748C404.12 -75.6632 401.52 -77.327 399.2 -78.9908C398.64 -79.356 398.32 -79.6806 397.68 -80.0864C390.08 -85.4024 381.16 -88.8923 371.8 -89.6228C365.96 -90.0692 367.04 -89.5416 362.48 -89.5822C357.56 -89.6228 349.4 -87.6344 346.04 -85.9706L341.32 -83.2111C334.36 -78.7067 330.6 -71.4835 328.48 -63.0834C326.92 -56.7529 325.8 -46.8108 326.76 -39.7905C326.96 -38.0455 326.72 -36.3412 326.88 -34.6368L330.04 -5.09453C330.96 1.72292 330.84 7.72878 331.84 14.5462C332.48 19.0912 332.8 30.3319 332.8 35.4449C332.8 50.1349 330.4 71.6018 325.12 85.2367C319.68 99.1962 315.36 107.109 306.52 119.162C305.64 120.379 305.24 120.704 304.32 121.799L295.2 131.741C290.6 136.368 287.88 137.22 287.88 146.147C287.88 152.113 291.64 157.023 296.4 158.971C297.68 159.498 300.64 160.472 302.36 160.472Z" stroke="white" stroke-opacity="0.15" stroke-width="3"/>
<path fill-rule="evenodd" clip-rule="evenodd" d="M574.48 172.89C568.28 172.89 564.84 171.632 560.64 167.33C555.2 161.771 554.72 160.472 551.08 154.06C549.4 151.139 549.56 151.139 548.32 147.811C542.08 130.93 544.84 111.208 550.76 95.3817C554.6 85.1149 558.32 79.3932 564.52 70.8713L573.68 60.9698C574.8 60.077 575.04 59.9147 576.04 58.8596C580 54.8828 591.52 48.39 596.96 46.1987C600.76 44.6566 607.68 42.9523 612.72 42.9523C612.72 49.7291 611.68 56.2219 611.24 62.5524C610.76 70.1409 607.4 92.9469 606.12 99.5614C605.56 102.686 605.04 105.243 604.52 108.448C603.16 116.483 596.6 144.362 594.6 151.098C593.08 156.008 590.48 161.608 587.4 164.895C584.84 167.574 586.48 166.884 582 169.968C580 171.307 577.64 172.89 574.48 172.89ZM571.88 203C583.92 203 589.72 200.89 598.92 194.64C602.32 192.368 604.6 190.339 607.44 187.498C608.28 186.606 608.4 186.484 609.16 185.469C613.76 179.504 616.64 175.852 619.88 168.101L622.36 162.704L627.2 143.51C629.76 133.811 633.56 114.657 635.32 103.903C641.04 69.0047 643.04 46.6856 643.16 8.70271C643.2 5.69979 642.76 4.27948 642.8 1.56061C642.88 -18.1613 639.8 -47.0949 636.64 -66.411C635.92 -70.9154 635.04 -74.2429 632.52 -76.8806C628.12 -81.4662 626.08 -82.0749 620.16 -82.0749C616.64 -82.0749 613.28 -80.2082 610.92 -77.8951C604.52 -71.6864 606.6 -64.2602 607.76 -57.4022L610.28 -38.5325C611.12 -32.4861 611.48 -24.7352 612.24 -19.054L613.08 -3.71479C613.08 -1.27999 613.44 -0.468381 613.48 1.52004C613.52 3.26498 613.44 5.09108 613.44 6.83602C613.48 8.98676 613.84 9.67663 613.84 12.0708C601.32 12.0708 582.96 18.0767 572.56 24.4478C566.88 27.8971 558.56 33.5783 553.96 38.3667C552.88 39.503 552.24 39.787 551.2 40.8015C550.2 41.7349 549.32 42.6276 548.4 43.6016C547.36 44.6972 547.08 45.3465 546 46.4422C544.8 47.6596 544.44 48.1465 543.4 49.4451C538.16 55.9785 536.44 58.2915 532.32 65.3525L528.56 72.454C520.56 86.8599 514 111.817 515.44 129.225C516.08 137.057 515.44 140.101 517.76 148.704C520.88 160.229 524.6 168.913 531.28 178.693C532.8 180.924 534.36 182.588 536.04 184.78C536.56 185.469 536.68 185.591 537.28 186.119C537.64 186.443 537.6 186.362 537.92 186.646C543.12 191.394 547 195.574 554.64 198.658C557.4 199.754 559.36 200.93 562.4 201.701C564.96 202.391 568.96 203 571.88 203Z" stroke="white" stroke-opacity="0.15" stroke-width="3"/>
<path fill-rule="evenodd" clip-rule="evenodd" d="M376.6 -223.659C376.6 -246.465 383.56 -288.384 389.08 -310.784C390 -314.599 394.28 -332.535 395.4 -335.213C397.2 -339.433 399.76 -343.735 402.52 -347.225C406.48 -352.216 412.4 -355.909 419 -354.002C432.76 -350.025 442.24 -331.277 443.8 -316.668C444.72 -307.903 444.24 -303.114 442.96 -294.187C442.24 -289.114 439.8 -279.294 437.6 -274.749C435.68 -270.691 434 -266.227 431.4 -262.21C428 -257.056 428.12 -256.813 423.76 -251.131C418.56 -244.395 408.28 -234.98 400.48 -231.044C388.2 -224.876 377.76 -224.186 376.6 -223.659ZM366.56 -99.3619C371.88 -99.3619 374.84 -100.417 377.8 -103.42C380.6 -106.22 382.24 -108.858 382.64 -113.24C382.96 -117.055 381.64 -121.519 380.88 -125.577C380.08 -129.959 379.68 -133.774 379.04 -138.359L375.48 -178.818C375.4 -183.687 375.48 -188.638 375.48 -193.508C387.76 -194.563 395.84 -196.429 406.92 -201.177L411.64 -203.206C417.32 -206.087 418.48 -206.696 424.04 -210.551C426.92 -212.54 432.6 -216.922 434.96 -219.398C436.4 -220.899 438.44 -222.319 440.16 -224.308C449.8 -235.386 456.6 -244.638 462.76 -258.273C463.48 -259.897 464 -261.195 464.76 -263.021C469.8 -275.276 473.88 -290.048 473.88 -307.254C473.88 -321.497 470.6 -336.552 464.84 -348.158C461.6 -354.651 456.4 -362.848 451.32 -367.961C442.96 -376.402 430.28 -384.437 417.8 -384.437C407.04 -384.437 398.96 -382.083 390.2 -376.321C384.48 -372.547 378.48 -365.405 374.6 -359.764C373.12 -357.613 368.56 -349.497 367.56 -346.9L365 -337.08C362.96 -328.639 360.52 -320.239 358.56 -311.23C357.56 -306.685 357 -302.587 355.96 -298.042C354.88 -293.375 354.24 -289.398 353.48 -284.366C352.84 -280.065 351.84 -275.317 351.12 -270.569C347.08 -243.867 345.92 -216.517 345.8 -187.867C345.76 -184.986 346.16 -183.768 346.16 -181.09C346.16 -178.818 346.04 -176.18 346.16 -173.948C346.24 -172.284 346.48 -172.365 346.52 -170.58C346.88 -158.284 348.16 -151.467 349.12 -140.023C349.88 -131.136 351.32 -123.061 352.64 -114.62C353.4 -109.629 354.04 -107.113 356.8 -104.15C358.96 -101.878 362.36 -99.3619 366.56 -99.3619Z" stroke="white" stroke-opacity="0.15" stroke-width="3"/>
<path fill-rule="evenodd" clip-rule="evenodd" d="M721.12 85.8859L725.12 59.4278C725.56 56.1002 725.64 53.3002 726.12 49.8914C726.52 46.9697 726.84 43.3581 727.04 40.6798C727.64 33.5377 728.56 23.4738 728.56 16.5752C728.56 14.3027 728.92 13.8564 728.92 11.7056C731.24 11.1781 733.52 10.4476 735.68 9.9201C738.16 9.27082 740.32 8.66212 742.64 7.8911C744.68 7.20124 746.88 6.63311 749.12 5.82151C751.4 5.05049 753.32 4.15774 755.4 3.18382C756.44 2.69686 757.36 2.33163 758.28 1.92583C758.72 1.72293 759.32 1.47946 759.8 1.23598L772.6 -6.14961C774.56 -7.36701 775.96 -8.70615 777.96 -9.76123C777.96 -6.14961 777.48 -4.16119 777.2 -1.0771C776.76 4.1983 774.32 18.5636 773 23.2709C767.52 42.1407 765.28 50.5813 753.64 65.7988L748.92 70.7902C747.96 71.5612 747.4 72.3322 746.48 73.1844C743.6 75.7815 738.52 79.0279 735.12 80.8946C733.36 81.8685 730.4 82.9642 728.52 83.6135L721.12 85.8859ZM808 -34.9208L808 -25.2628C807.96 -19.0541 807.84 -13.5757 807.6 -11.3033L806.76 -0.87419C804.2 17.0622 804.28 19.01 799.76 36.8653C798.24 42.9523 798.08 42.7899 796.28 48.39C793.92 55.6944 790.68 62.4713 787.12 69.2075C781.72 79.3931 772.64 90.5932 763.64 97.7353L755.16 103.863C745.12 109.341 746.72 108.895 734.56 113.075C724.04 116.686 713.56 117.133 702.56 117.133C693.56 117.133 685.88 108.651 688.28 99.2774C688.52 98.3846 688.64 97.5324 688.8 96.802L695.2 58.4538C697.92 39.016 698.88 23.555 698.88 3.42729L698.48 -11.2627C698.52 -13.454 698.2 -14.0221 698.12 -15.7671L697 -34.5962C696.32 -43.2803 694.76 -52.6949 694.04 -61.3385C693.52 -67.5878 692.04 -74.1212 695.04 -79.5589C695.92 -81.1821 696.84 -82.3589 698.16 -83.5358C703.56 -88.1213 710.64 -89.3793 716.48 -84.8749C718.44 -83.3734 720.32 -81.2633 721.4 -78.9096C722.92 -75.6632 724.72 -55.6573 725.48 -49.5702L728.2 -19.541C729.76 -19.6628 732.44 -20.5555 733.8 -21.0019C745.2 -24.5324 754.96 -29.9295 764.4 -37.3962L777.32 -48.434C778.16 -49.4891 778 -49.3268 777.96 -51.1529L776.92 -63.6921C776.64 -66.0052 776.64 -67.669 776.36 -69.9009C775.24 -78.3009 775.4 -81.9937 782.12 -87.5938C787.96 -92.4228 798.48 -90.9619 803.28 -83.2923C805.48 -79.6806 805.96 -73.1878 806.48 -68.0747C807.08 -62.2312 807.16 -56.1442 807.64 -50.4224C807.84 -47.8659 807.96 -41.6977 808 -34.9208Z" stroke="white" stroke-opacity="0.15" stroke-width="3"/>
<path fill-rule="evenodd" clip-rule="evenodd" d="M253.32 109.26C259.52 109.26 264 108.895 269.88 107.596C274.08 106.622 278.28 105.08 281.68 103.335C289.36 99.4397 296.44 94.4484 302.24 88.0773C303.08 87.144 303.2 86.7382 304.12 85.8048C312.72 76.8366 321.28 59.0626 321.28 46.361C321.28 39.9088 321.76 32.0362 319.52 26.2739C313 9.51432 307.8 2.45339 291.08 -5.0945C278.32 -10.8974 265.68 -9.72062 252.48 -7.97567L237.76 -7.1235C227.24 -7.1235 221.16 -9.84236 216.04 -18.6482C215 -20.4338 214.64 -21.083 213.92 -23.2744C211.36 -31.1875 210.12 -37.9643 213.84 -45.6745C214.6 -47.2572 215.44 -48.5151 216.68 -49.5702C218 -50.6659 219.32 -51.5992 220.92 -52.4514C227.64 -55.9007 234.92 -56.7529 244.4 -56.063C253.68 -55.3732 267.52 -51.4369 275.6 -45.918C278.32 -44.0919 281.2 -41.7788 285.64 -41.7788C299.72 -41.7788 307.8 -61.2167 292.52 -70.5907C287.56 -73.6342 284.64 -75.9067 278.64 -78.3415C262.44 -84.9154 255.2 -86.214 236.24 -86.214C224.8 -86.214 210.96 -82.643 202.16 -75.9878C200.88 -75.0139 199.6 -74.4052 198.48 -73.3095C191.16 -66.2892 186.44 -59.6746 184 -49.6108C180.4 -35.002 181.68 -24.7352 187.24 -10.4916C190.56 -2.0104 197.12 7.28243 204.32 12.8419C215.6 21.5666 228.28 23.0681 242.2 22.6623L253.6 21.7695C255.92 21.4449 258.48 21.6883 261.12 21.4854C263.56 21.2825 265.76 20.755 268.56 20.755C281.2 20.755 291.96 27.2072 291.96 40.7204C291.96 49.3639 289.32 55.9785 284.32 62.7148C280.36 68.0713 275.72 72.4946 269.56 75.6192C263.56 78.6221 259.04 79.1091 252.24 79.1091C240.6 79.1091 229.8 73.1033 222.04 65.2713C219.24 62.4307 215.72 57.8046 213.84 54.3959C211.52 50.135 209.84 43.3581 208.12 41.0044C198.8 28.2623 180.92 35.0798 180.92 49.7292C180.92 52.6509 181.68 54.2741 182.48 56.4654C183.16 58.3727 183.92 60.4423 184.76 62.4307C186.92 67.2597 190.64 74.1583 193.84 78.0946C201.04 86.9005 204.56 91.3643 215.04 98.0194C225.6 104.756 239.48 109.26 253.32 109.26Z" stroke="white" stroke-opacity="0.15" stroke-width="3"/>
<path fill-rule="evenodd" clip-rule="evenodd" d="M717.04 -172.041L721.52 -172.041C739.76 -172.041 763.64 -179.792 772.88 -163.519C778.24 -154.064 781.08 -137.386 770 -130C762.52 -125.049 754.2 -125.374 745.28 -125.374C734.24 -125.374 722 -129.797 713.64 -135.438C710.24 -137.751 707.92 -139.658 702.96 -139.658C695.56 -139.658 688.48 -132.881 688.48 -124.238C688.48 -115.959 694.56 -111.942 700.4 -108.127C701.64 -107.316 702.72 -106.869 704 -106.098C709.48 -102.69 722.44 -98.3881 728.88 -97.0895C742.4 -94.3706 759 -94.4112 772.6 -98.3881C780.16 -100.579 784.56 -103.136 790.04 -107.437C791.72 -108.777 795.28 -112.429 796.52 -114.052C799.96 -118.597 798.04 -115.959 800.36 -119.936C804.68 -127.24 807.28 -136.899 807.28 -146.435C807.28 -156.986 803.28 -170.174 798.2 -178.696C797.36 -180.116 796.52 -181.334 795.56 -182.754C787.68 -194.279 772.52 -204.059 754.56 -204.059L748.6 -204.059C735.72 -204.059 712.4 -198.377 703.76 -207.183C701.88 -209.09 700.48 -210.227 699.2 -212.702C694.04 -222.928 698.72 -234.778 704.36 -243.299C710.2 -252.186 721.08 -260.546 733.4 -260.546C746.76 -260.546 762.08 -254.094 769.92 -243.381C774.8 -236.766 776.04 -234.981 778.92 -226.499C779.44 -224.876 780.08 -223.456 781 -222.238C791.4 -208.806 808 -217.45 808 -230.03C808 -238.227 802.2 -249.062 798.2 -255.149C797.16 -256.772 796.08 -258.233 794.96 -259.734C793.76 -261.398 792.48 -262.778 791.32 -264.32C789.84 -266.268 785.12 -270.732 783 -272.436C780.4 -274.505 774.16 -279.132 771.12 -280.755C755.36 -289.317 737.4 -293.538 719.64 -288.79C706.88 -285.381 697.6 -280.187 688.2 -270.61C682.72 -265.091 677.84 -258.071 674.36 -251.131C667.48 -237.578 664.24 -214.366 672.28 -200.853C674.04 -197.931 673.72 -197.525 676.72 -192.899C678.8 -189.734 681.24 -187.218 684.08 -184.905C687.92 -181.78 687.84 -181.577 692.72 -178.615C698.2 -175.287 709.4 -172.041 717.04 -172.041Z" stroke="white" stroke-opacity="0.15" stroke-width="3"/>
<path fill-rule="evenodd" clip-rule="evenodd" d="M477.6 -94.4923C490.96 -94.4923 506.8 -97.0895 519.4 -100.295L537.48 -106.058C552.4 -112.388 548.72 -135.154 532.16 -135.154C528.2 -135.154 501.84 -124.968 480.92 -124.968C470.48 -124.968 462.4 -125.09 453.52 -129.959C451.92 -130.852 451.32 -131.542 449.88 -132.678C442.8 -138.319 442.6 -151.832 447.88 -161.125C448.32 -161.855 449.12 -163.113 449.68 -163.844C455.12 -170.783 473.56 -185.554 479.24 -192.98C480.04 -194.035 480.56 -194.4 481.4 -195.293C482.08 -196.105 482.68 -196.957 483.36 -197.809C491 -207.711 495.24 -214.69 500.6 -225.525C501.08 -226.499 501.64 -227.554 502.08 -228.528C505.88 -237.091 510.4 -249.63 512.84 -258.679C514.16 -263.427 515.16 -268.094 516.4 -273.126C517.68 -278.158 518.44 -283.555 519.44 -288.506C520.48 -293.74 525.16 -328.842 525.12 -337.364C525.08 -343.41 525.84 -348.28 525.84 -355.463C525.84 -365.567 512.84 -375.103 501.28 -365.324C500.6 -364.715 499.56 -363.335 499.12 -362.605C496.24 -357.816 496.76 -352.541 496.52 -345.277C496.32 -337.891 493.88 -315.654 492.92 -308.998C490.48 -291.874 487.76 -276.656 482.36 -260.221C479.4 -251.212 475.4 -240.824 470.56 -232.667C466.2 -225.322 465.92 -224.754 460.76 -217.734C458.16 -214.163 452.16 -207.711 449.08 -204.708L438.68 -195.293C432.2 -188.638 431.04 -188.679 424.04 -180.035C412.72 -166.197 411.6 -140.997 419.16 -124.846C423.44 -115.756 432.4 -106.991 441.12 -102.69C442.68 -101.918 444.24 -101.066 446.2 -100.295C455.36 -96.7242 466.48 -94.4923 477.6 -94.4923Z" stroke="white" stroke-opacity="0.15" stroke-width="3"/>
<path fill-rule="evenodd" clip-rule="evenodd" d="M457.52 -46.6485C462.64 -46.6485 465.36 -47.8253 470.56 -49.6108C479.12 -52.5326 496.4 -56.4283 505.44 -56.4283C517.44 -56.4283 520.24 -56.9152 532.04 -52.9384C538 -50.9094 543.36 -44.7006 544.6 -38.9383C546.08 -31.8773 544.24 -23.4773 539.88 -18.1207C535.92 -13.2511 533.4 -11.425 529.08 -7.56989C528.12 -6.71771 527.48 -5.86554 526.52 -4.9322L518.16 2.77802C511.44 9.55489 511.2 10.123 505.52 16.697L503.08 19.8622C501.4 21.9724 500.12 23.9608 498.6 26.2333C492.32 35.8102 488.24 43.7639 484.04 54.4364C477.12 72.0887 476.08 77.7699 471.64 96.0715C470 102.93 466.28 125.857 465.72 132.999C464.72 146.391 462.72 159.579 462.72 173.255C462.72 180.356 469.04 187.945 476.84 187.945C481.84 187.945 484.48 187.214 487.88 183.724C489.08 182.466 490 181.574 490.84 179.91C493.12 175.284 492.24 167.208 492.84 161.649C493.28 157.916 493.68 153.005 493.92 149.15C494.16 145.173 494.72 140.791 495.04 136.733C495.72 128.779 498.96 110.072 500.68 101.793C502.36 93.7585 504.12 88.3208 506.32 80.4076C509.04 70.6279 515.36 56.3031 520.72 47.5784C521.68 45.9958 522.24 44.7784 523.24 43.3581C524.2 41.9783 525 40.8827 526 39.3406C527.96 36.3377 531.12 32.7667 533.56 30.0884C536.04 27.3695 537.88 24.5695 541.76 21.4448L562.48 1.80409C566.6 -3.14668 570.2 -8.42208 572.32 -15.3613C575.4 -25.5469 575.52 -39.7499 572.16 -50.7065C570.76 -55.4138 568 -60.0805 565.16 -63.9356C564.08 -65.3965 563.44 -66.3298 562.16 -67.6689C555 -74.811 551.04 -77.2053 541.96 -81.101C540.84 -81.5473 540.72 -81.7096 539.6 -82.0749C523.68 -86.9039 520.92 -86.5793 504.32 -86.5793C491.88 -86.5793 478.28 -83.2111 468.24 -80.614C465.04 -79.8024 455.08 -76.8806 452.44 -75.5415C450.12 -74.3646 448.16 -72.782 446.72 -70.8342C441.2 -63.3675 443.64 -52.2485 452.08 -48.2717C453.28 -47.7036 456.04 -46.6485 457.52 -46.6485Z" stroke="white" stroke-opacity="0.15" stroke-width="3"/>
<path fill-rule="evenodd" clip-rule="evenodd" d="M665.08 110.762C668.76 110.762 673.48 108.408 675.36 106.501L678.32 102.361C680.48 98.2223 683.08 76.3496 683.6 70.7902C685.28 52.8538 687.36 35.5667 687.36 15.8448C687.36 10.4476 687.8 6.95777 687.36 1.88526C687.04 -2.37565 687.32 -8.34092 687.36 -12.7641L686.6 -26.6831C685.92 -40.2368 684.68 -53.4659 682.84 -66.9385C681.96 -73.1472 680.4 -77.2864 674.6 -80.4517C666.56 -84.7937 655.96 -80.1676 653.84 -70.8748C652.76 -66.0863 654.88 -55.3326 655.4 -48.8804C658.44 -11.5062 659.44 15.7231 655.48 53.1784C654.32 64.338 653.36 73.2656 651.56 84.2222C650.16 92.7034 648.36 100.008 654.6 106.338C657.16 108.935 661.08 110.762 665.08 110.762Z" stroke="white" stroke-opacity="0.15" stroke-width="3"/>
<path fill-rule="evenodd" clip-rule="evenodd" d="M320.52 -98.9967C329.96 -98.9967 335.76 -105.49 335.76 -115.188C335.76 -118.353 335 -120.788 334.52 -123.751C333.16 -132.191 330.96 -151.345 330.56 -159.623C330.08 -169.687 329.44 -179.589 329.44 -189.774L331 -224.348C331.36 -227.838 331.76 -231.531 332.08 -235.305C332.64 -242.123 333.76 -249.995 335.04 -256.366L339.08 -276.737C339.08 -283.149 335.32 -288.303 329.92 -290.413C323.76 -292.888 318.36 -292.036 313.76 -287.369C309.36 -282.946 308 -271.543 306.92 -264.969C306.16 -260.668 305.36 -256.569 304.68 -252.552L300.52 -213.067C299.84 -205.114 300.12 -191.722 300.12 -183.728C300.12 -166.4 301.8 -150.249 303.52 -134.464C304.4 -126.632 305.6 -118.962 306.8 -111.414C307.92 -104.353 313.96 -98.9967 320.52 -98.9967Z" stroke="white" stroke-opacity="0.15" stroke-width="3"/>
<path fill-rule="evenodd" clip-rule="evenodd" d="M650.96 174.391C657 174.391 662.4 170.333 664.56 164.814C665.16 163.272 665.36 162.055 665.88 160.513C666.32 159.052 666.84 157.429 667.28 155.887C668.48 151.544 670.04 141.724 671.32 136.286C675.12 119.851 656.44 110.559 646.36 121.515C643.16 125.005 643.2 127.278 641.92 132.431L637.76 151.585C636.44 156.942 636.12 154.263 636.12 160.472C636.12 164.53 638.56 168.061 640.64 170.171C642.76 172.281 646.96 174.391 650.96 174.391Z" stroke="white" stroke-opacity="0.15" stroke-width="3"/>
<path fill-rule="evenodd" clip-rule="evenodd" d="M332.4 -298.204C343.4 -298.204 346.4 -308.309 348.12 -317.317C348.36 -318.738 348.56 -320.401 348.92 -322.146C349.24 -323.891 349.68 -325.23 350.08 -326.975C352.52 -336.715 356.2 -344.993 346.96 -352.5C340.2 -357.979 331.36 -355.544 327.36 -350.796C324.92 -347.834 323.48 -343.654 322.48 -339.555C320.56 -331.967 319.88 -327.016 318.32 -319.63C317.2 -314.071 315.92 -307.294 321.68 -302.384C323.64 -300.761 323.32 -300.436 326.24 -299.462C327.88 -298.935 330.44 -298.204 332.4 -298.204Z" stroke="white" stroke-opacity="0.15" stroke-width="3"/>
</svg>
